<?xml version="1.0" standalone="no"?>
<!DOCTYPE svg PUBLIC "-//W3C//DTD SVG 20010904//EN"
 "http://www.w3.org/TR/2001/REC-SVG-20010904/DTD/svg10.dtd">
<svg version="1.0" xmlns="http://www.w3.org/2000/svg"
 width="512.000000pt" height="512.000000pt" viewBox="0 0 512.000000 512.000000"
 preserveAspectRatio="xMidYMid meet">

<g transform="translate(0.000000,512.000000) scale(0.100000,-0.100000)"
fill="#000000" stroke="none">
<path d="M2371 5110 c-858 -71 -1593 -533 -2026 -1274 l-58 -98 29 -23 c16
-13 202 -165 414 -338 l385 -316 14 32 c62 143 142 287 210 378 268 357 678
581 1108 607 300 18 540 -29 800 -159 l122 -61 405 333 c223 183 406 336 406
341 0 15 -200 157 -323 230 -291 173 -630 289 -967 332 -151 19 -389 27 -519
16z"/>
</g>
</svg>
